<svg xmlns="http://www.w3.org/2000/svg" xmlns:xlink="http://www.w3.org/1999/xlink" width="925.53" height="471.36" viewBox="0 0 925.53 471.36">
  <defs>
    <filter id="Path_15" x="292.124" y="40.685" width="227.487" height="191.502" filterUnits="userSpaceOnUse">
      <feOffset dy="3" input="SourceAlpha"/>
      <feGaussianBlur stdDeviation="3" result="blur"/>
      <feFlood/>
      <feComposite operator="in" in2="blur"/>
      <feComposite in="SourceGraphic"/>
    </filter>
    <filter id="Path_17" x="437.303" y="90.773" width="198.515" height="141.414" filterUnits="userSpaceOnUse">
      <feOffset dy="3" input="SourceAlpha"/>
      <feGaussianBlur stdDeviation="3" result="blur-2"/>
      <feFlood/>
      <feComposite operator="in" in2="blur-2"/>
      <feComposite in="SourceGraphic"/>
    </filter>
  </defs>
  <g id="Group_4" data-name="Group 4" transform="translate(0 0)" style="isolation: isolate">
    <path id="Path_9" data-name="Path 9" d="M139.578,686.338c16.736,11.984,38.425,12.586,59.39,11.114,2.927-.205,5.834-.446,8.714-.706.017,0,.04,0,.058-.007.138-.013.277-.026.409-.034l1.778-.166-.139.264-.437.819c.157-.274.314-.542.471-.816.046-.082.1-.164.144-.246,5.431-9.394,10.818-19.134,12.192-29.861,1.42-11.134-2.571-23.742-12.43-29.215a19.954,19.954,0,0,0-4.082-1.7c-.59-.178-1.187-.323-1.792-.45a21.4,21.4,0,0,0-20.514,6.56,21.1,21.1,0,0,0-4.283,20.993c-8.358-8.52-6.8-22.34-3.916-33.891s6.386-24.4.51-34.777c-3.266-5.774-9.01-9.357-15.456-10.8-.2-.042-.4-.085-.593-.121a31.277,31.277,0,0,0-22.358,3.894c-12.325,7.72-18.655,22.358-20.71,36.7C113.224,646.961,120.55,672.711,139.578,686.338Z" transform="translate(-94.634 -226.718)" fill="#2c2c2c"/>
    <path id="Path_10" data-name="Path 10" d="M147.759,649.412a52.327,52.327,0,0,0,3.651,14.818,45.616,45.616,0,0,0,7.132,11.58,58.845,58.845,0,0,0,22.607,16.2,85.116,85.116,0,0,0,20.6,5.5c2.927-.205,5.834-.446,8.714-.706.017,0,.04,0,.058-.007.138-.013.277-.026.41-.034l1.778-.166-.139.264-.437.819c.157-.274.314-.542.471-.816.046-.082.1-.164.144-.246a45.926,45.926,0,0,1-4.32-60.775c-.59-.178-1.187-.323-1.792-.451a48.611,48.611,0,0,0-4.466,7.353,47.432,47.432,0,0,0-4.139,29.667,48.651,48.651,0,0,0,12.427,24.319c-.559-.039-1.124-.084-1.676-.134-10.465-.881-20.909-3.118-30.4-7.7a54.683,54.683,0,0,1-20.511-16.729c-5.749-7.881-8.282-17.36-8.717-26.994a113.268,113.268,0,0,1,3.253-30.84,128.954,128.954,0,0,1,10.943-29.63.928.928,0,0,0-.372-1.229.8.8,0,0,0-.593-.121.691.691,0,0,0-.458.39c-.6,1.161-1.185,2.322-1.75,3.5a130.374,130.374,0,0,0-10.31,30.739C147.781,628.24,146.67,638.969,147.759,649.412Z" transform="translate(-97.411 -226.78)" fill="#fff"/>
    <path id="Path_11" data-name="Path 11" d="M1055.95,672.755c-25.252,18.083-57.977,18.99-89.609,16.769-4.417-.31-8.8-.673-13.148-1.066-.026-.007-.061,0-.087-.011-.209-.02-.418-.04-.618-.051l-2.683-.251.21.4.659,1.235c-.237-.413-.473-.818-.71-1.232-.07-.124-.148-.248-.217-.372-8.194-14.174-16.322-28.869-18.395-45.055-2.143-16.8,3.88-35.823,18.754-44.08a30.133,30.133,0,0,1,6.159-2.564c.89-.269,1.791-.487,2.7-.679a32.291,32.291,0,0,1,30.953,9.9,31.835,31.835,0,0,1,6.462,31.675c12.611-12.854,10.259-33.707,5.909-51.135s-9.635-36.82-.77-52.473c4.928-8.713,13.594-14.118,23.32-16.3.3-.064.6-.128.9-.183a47.192,47.192,0,0,1,33.734,5.875c18.6,11.648,28.148,33.734,31.247,55.368C1095.714,613.34,1084.661,652.194,1055.95,672.755Z" transform="translate(-166.349 -220.52)" fill="#2c2c2c"/>
    <path id="Path_12" data-name="Path 12" d="M1049.612,617.039A78.952,78.952,0,0,1,1044.1,639.4a68.816,68.816,0,0,1-10.761,17.472c-9.076,10.852-21.077,19.011-34.11,24.448a128.417,128.417,0,0,1-31.076,8.3c-4.417-.31-8.8-.673-13.148-1.065-.026-.007-.061,0-.087-.011-.209-.02-.418-.039-.618-.051l-2.682-.251.21.4.659,1.235c-.237-.413-.473-.818-.71-1.232-.07-.124-.148-.248-.217-.372a69.294,69.294,0,0,0,6.518-91.7c.89-.269,1.791-.487,2.7-.68a73.324,73.324,0,0,1,6.739,11.094,71.567,71.567,0,0,1,6.245,44.762,73.406,73.406,0,0,1-18.75,36.693c.844-.059,1.7-.127,2.529-.2,15.79-1.33,31.547-4.7,45.869-11.615a82.507,82.507,0,0,0,30.948-25.241c8.673-11.89,12.5-26.193,13.152-40.729.7-15.563-1.335-31.4-4.908-46.533a194.557,194.557,0,0,0-16.511-44.705,1.4,1.4,0,0,1,.561-1.854,1.208,1.208,0,0,1,.9-.183,1.045,1.045,0,0,1,.691.588c.9,1.751,1.788,3.5,2.641,5.276a196.713,196.713,0,0,1,15.556,46.38C1049.584,585.094,1051.253,601.282,1049.612,617.039Z" transform="translate(-168.164 -220.614)" fill="#fff"/>
    <path id="Path_13" data-name="Path 13" d="M771.106,465.378h-377.6a2.983,2.983,0,0,1-2.985-2.967V193a2.983,2.983,0,0,1,2.985-2.968h377.6A2.984,2.984,0,0,1,774.091,193V462.41a2.984,2.984,0,0,1-2.985,2.967Zm-377.6-273.536A1.162,1.162,0,0,0,392.344,193V462.41a1.162,1.162,0,0,0,1.163,1.154h377.6a1.162,1.162,0,0,0,1.161-1.155V193a1.162,1.162,0,0,0-1.162-1.154h-377.6Z" transform="translate(-118.806 -190.028)" fill="#3f3d56"/>
    <path id="Path_14" data-name="Path 14" d="M752.482,215.055V406.516a4.834,4.834,0,0,1-4.846,4.82H420.657a4.114,4.114,0,0,1-.695-.054,4.825,4.825,0,0,1-4.154-4.767V215.055a4.833,4.833,0,0,1,4.846-4.82H747.632a4.833,4.833,0,0,1,4.849,4.817Z" transform="translate(-121.03 -191.916)" fill="#2c2c2c"/>
    <ellipse id="Ellipse_2" data-name="Ellipse 2" cx="42.544" cy="42.289" rx="42.544" ry="42.289" transform="translate(334.656 47.579)" fill="#ff6584"/>
    <g transform="matrix(1, 0, 0, 1, 0, 0)" filter="url(#Path_15)">
      <path id="Path_15-2" data-name="Path 15" d="M632.254,415.027H423.547a4.282,4.282,0,0,1-.78-.061l98.709-169.953a6.932,6.932,0,0,1,12.031,0l66.245,114.052,3.174,5.457Z" transform="translate(-121.64 -194.84)" fill="#fff"/>
    </g>
    <path id="Path_16" data-name="Path 16" d="M552.992,237.114H481.735l34.98-50.505,2.518-3.638,1.259-1.819,3.174,5.458Z" transform="translate(-42.381 -16.927)" opacity="0.2"/>
    <g transform="matrix(1, 0, 0, 1, 0, 0)" filter="url(#Path_17)">
      <path id="Path_17-2" data-name="Path 17" d="M762.465,420.19H581.95l34.98-50.506,2.517-3.638,45.582-65.818c2.988-4.314,10.177-4.582,13.691-.814a8.2,8.2,0,0,1,.656.814Z" transform="translate(-135.65 -200)" fill="#fff"/>
    </g>
    <ellipse id="Ellipse_3" data-name="Ellipse 3" cx="5.791" cy="5.757" rx="5.791" ry="5.757" transform="translate(278.069 259.055)" fill="#6c63ff"/>
    <ellipse id="Ellipse_4" data-name="Ellipse 4" cx="5.791" cy="5.757" rx="5.791" ry="5.757" transform="translate(278.069 5.218)" fill="#6c63ff"/>
    <ellipse id="Ellipse_5" data-name="Ellipse 5" cx="5.791" cy="5.757" rx="5.791" ry="5.757" transform="translate(638.318 5.218)" fill="#6c63ff"/>
    <ellipse id="Ellipse_6" data-name="Ellipse 6" cx="5.791" cy="5.757" rx="5.791" ry="5.757" transform="translate(638.318 259.055)" fill="#6c63ff"/>
    <path id="Path_18" data-name="Path 18" d="M220.779,502.346H231.96l5.319-42.869h-16.5Z" transform="translate(-19.423 -42.933)" fill="#a0616a"/>
    <path id="Path_19" data-name="Path 19" d="M0,0H35.141V13.5H13.577A13.537,13.537,0,0,1,0,0H0Z" transform="translate(234.098 469.734) rotate(179.997)" fill="#2f2e41"/>
    <path id="Path_20" data-name="Path 20" d="M174.779,502.346H185.96l5.319-42.869h-16.5Z" transform="translate(-15.376 -42.933)" fill="#a0616a"/>
    <path id="Path_21" data-name="Path 21" d="M0,0H35.141V13.5H13.577A13.537,13.537,0,0,1,0,0H0Z" transform="translate(192.145 469.733) rotate(179.997)" fill="#2f2e41"/>
    <path id="Path_22" data-name="Path 22" d="M267.4,543.724a9.7,9.7,0,0,0,1.881-14.816l7.362-103.854L255.438,427.1l-.583,101.7a9.748,9.748,0,0,0-.394,13,9.892,9.892,0,0,0,12.941,1.921Z" transform="translate(-106.634 -211.989)" fill="#a0616a"/>
    <path id="Path_23" data-name="Path 23" d="M309.253,659.316a4.111,4.111,0,0,1-4.076-3.6l-6.5-54.033a3.195,3.195,0,0,0-6.323-.116l-8.187,51.735a4.077,4.077,0,0,1-4.054,3.446h-13.27a4.116,4.116,0,0,1-2.913-1.206,4.067,4.067,0,0,1-1.191-2.9l6.333-114.711a4.064,4.064,0,0,1,3.514-4.007l49.243-7.106a4.122,4.122,0,0,1,3.286.962,4.07,4.07,0,0,1,1.408,3.1l-.859,123.8a4.09,4.09,0,0,1-3.909,4.046l-12.309.583Q309.351,659.316,309.253,659.316Z" transform="translate(-107.564 -221.494)" fill="#2f2e41"/>
    <path id="Path_24" data-name="Path 24" d="M283.091,530.443a41.338,41.338,0,0,1-13.886-2.458,4.051,4.051,0,0,1-2.661-3.631c-.425-9.371-2.91-57.606-10.146-87.029a29.985,29.985,0,0,1,11.525-31.343q.584-.417,1.19-.819a29.616,29.616,0,0,1,28.633-2.231,30.135,30.135,0,0,1,17.66,23.532l11.8,87.076a4.073,4.073,0,0,1-3.634,4.6c-4.089.405-12.568,1.98-23.421,7.974A34.936,34.936,0,0,1,283.091,530.443Z" transform="translate(-106.931 -209.672)" fill="#6c63ff"/>
    <path id="Path_25" data-name="Path 25" d="M267.766,459.752l-19.418-5.233a4.082,4.082,0,0,1-2.887-5l6.826-25.026a11.313,11.313,0,0,1,22.2,3.56l-1.554,27.991a4.073,4.073,0,0,1-1.7,3.083,4.124,4.124,0,0,1-3.477.63Z" transform="translate(-106.031 -211.161)" fill="#6c63ff"/>
    <ellipse id="Ellipse_7" data-name="Ellipse 7" cx="22.4" cy="22.266" rx="22.4" ry="22.266" transform="translate(160.949 136.905)" fill="#a0616a"/>
    <path id="Path_26" data-name="Path 26" d="M376.937,413.1a9.486,9.486,0,0,0-.218,1.487L337.54,437.057l-9.523-5.449-10.152,13.211,20.372,14.433,44.7-35.05a9.611,9.611,0,0,0,10.543-2.677,9.47,9.47,0,0,0,1.212-10.749,9.591,9.591,0,0,0-17.752,2.329Z" transform="translate(-112.414 -210.186)" fill="#a0616a"/>
    <path id="Path_27" data-name="Path 27" d="M332.157,438.445,315.28,449.332a4.124,4.124,0,0,1-5.677-1.2l-14.2-21.75a11.194,11.194,0,0,1,2.371-14.855,11.358,11.358,0,0,1,15.111.789l19.94,19.825a4.065,4.065,0,0,1-.668,6.307Z" transform="translate(-110.277 -210.491)" fill="#6c63ff"/>
    <path id="Path_28" data-name="Path 28" d="M275.219,379.911c4.179,4.425,11.94,2.049,12.484-4a7.257,7.257,0,0,0-.009-1.41c-.281-2.678-1.837-5.108-1.465-7.936a4.146,4.146,0,0,1,.766-1.948c3.33-4.432,11.147,1.983,14.29-2.03,1.927-2.46-.338-6.334,1.141-9.084,1.952-3.629,7.733-1.839,11.358-3.827,4.034-2.212,3.792-8.363,1.137-12.105-3.238-4.563-8.916-7-14.523-7.349s-11.175,1.156-16.409,3.183c-5.947,2.3-11.845,5.488-15.505,10.686-4.451,6.322-4.879,14.82-2.653,22.212C267.185,370.8,271.806,376.3,275.219,379.911Z" transform="translate(-107.72 -203.124)" fill="#2f2e41"/>
    <path id="Path_29" data-name="Path 29" d="M440.988,709.785H93.507a.907.907,0,1,1,0-1.813H440.988a.907.907,0,1,1,0,1.813Z" transform="translate(-92.595 -238.425)" fill="#3f3d56"/>
    <path id="Path_30" data-name="Path 30" d="M1066.993,709.785H719.512a.907.907,0,1,1,0-1.813h347.481a.907.907,0,1,1,0,1.813Z" transform="translate(-147.669 -238.425)" fill="#3f3d56"/>
    <path id="Path_31" data-name="Path 31" d="M927.017,512.816a9.347,9.347,0,0,1-3.373-13.98l-7.053-68.546h15.242l5.605,66.932a9.387,9.387,0,0,1,1.758,12.4,9.517,9.517,0,0,1-12.179,3.2Z" transform="translate(-165.087 -212.478)" fill="#ffb8b8"/>
    <ellipse id="Ellipse_8" data-name="Ellipse 8" cx="21.565" cy="21.436" rx="21.565" ry="21.436" transform="translate(726.369 137.112)" fill="#ffb8b8"/>
    <path id="Path_32" data-name="Path 32" d="M903.876,466.855l-32.185-6.986a3.944,3.944,0,0,1-3.1-3.635c-.372-7.139-.639-25.606,4.894-42.847a26.155,26.155,0,0,1,33.564-16.539h0a25.924,25.924,0,0,1,14.839,35.862c-7.137,14.568-11.632,25.118-13.36,31.358a3.946,3.946,0,0,1-4.648,2.788Z" transform="translate(-160.849 -209.215)" fill="#6c63ff"/>
    <path id="Path_33" data-name="Path 33" d="M779.925,504.572H769.16l-5.12-41.27h15.887Z" transform="translate(-67.217 -43.291)" fill="#ffb8b8"/>
    <path id="Path_34" data-name="Path 34" d="M759.963,505.453h20.76v12.993H746.892a13.032,13.032,0,0,1,13.071-12.993Z" transform="translate(-65.709 -47.229)" fill="#2f2e41"/>
    <path id="Path_35" data-name="Path 35" d="M896.2,489.8l-9.432,5.155-24.492-33.711,13.922-7.608Z" transform="translate(-75.86 -42.388)" fill="#ffb8b8"/>
    <path id="Path_36" data-name="Path 36" d="M13.02,0,33.751.053l.033,13.011L0,12.978H0A12.952,12.952,0,0,1,13.02,0Z" transform="translate(791.285 459.844) rotate(-28.801)" fill="#2f2e41"/>
    <path id="Path_37" data-name="Path 37" d="M871.95,653.555l-16.571-1.268a3.929,3.929,0,0,1-3.63-3.534c-2.362-24.486-12.723-148.566,15.3-186.769l.079-.107.125-.046c.251-.091,25.243-8.95,39.582,7.285a3.908,3.908,0,0,1,.76,3.82l-.547,1.631a3.026,3.026,0,0,0,.435,2.769c3.979,5.347,17.373,25.942,22.637,66.441a3.013,3.013,0,0,0,.2.752l38.864,94.9a3.92,3.92,0,0,1-2.253,5.15L954.7,649.211a3.984,3.984,0,0,1-4.867-1.775l-56.1-101.178a2.2,2.2,0,0,0-4.1.773L876.171,650.144a3.943,3.943,0,0,1-3.914,3.422C872.155,653.567,872.053,653.563,871.95,653.555Z" transform="translate(-159.047 -215.192)" fill="#2f2e41"/>
    <path id="Path_38" data-name="Path 38" d="M819,391.654a9.137,9.137,0,0,1,.21,1.431l37.717,21.629,9.168-5.246,9.773,12.718-15.322,10.855a7.058,7.058,0,0,1-8.427-.2l-38.893-30.5a9.253,9.253,0,0,1-10.152-2.577,9.118,9.118,0,0,1-1.167-10.35A9.235,9.235,0,0,1,819,391.655Z" transform="translate(-154.901 -208.208)" fill="#ffb8b8"/>
    <path id="Path_39" data-name="Path 39" d="M862.9,413.935a3.926,3.926,0,0,1,1.942-2.64l17.308-9.62a11.017,11.017,0,0,1,15.4,1.928,10.863,10.863,0,0,1-1.939,15.3l-13.8,14.244a3.966,3.966,0,0,1-5.974-.325l-12.19-15.7A3.9,3.9,0,0,1,862.9,413.935Z" transform="translate(-160.357 -209.59)" fill="#6c63ff"/>
    <path id="Path_40" data-name="Path 40" d="M911.813,444.491a3.915,3.915,0,0,1-1.464-2.929l-.621-19.7a10.971,10.971,0,0,1,21.585-3.939l6.366,18.736a3.908,3.908,0,0,1-.341,3.253,3.951,3.951,0,0,1-2.7,1.869L915,445.3A3.964,3.964,0,0,1,911.813,444.491Z" transform="translate(-164.468 -210.487)" fill="#6c63ff"/>
    <path id="Path_41" data-name="Path 41" d="M906.76,356.752c-5.543,3.771-12.82,7.647-18.481,3.631a10.2,10.2,0,0,1-3.381-11.8c2.711-7.705,10.158-11.1,17.28-13.7,9.258-3.38,19.339-6.069,28.9-3.649s18,11.619,16.279,21.271c-1.388,7.762-8.754,14.221-7.708,22.037,1.052,7.865,9.951,12.005,17.807,13.411s16.647,1.857,22.293,7.467c7.2,7.156,5.4,19.945-1.373,27.5s-17,10.979-26.914,13.307c-13.13,3.084-27.332,4.705-39.8-.414s-22.175-18.9-18.562-31.82c1.526-5.458,5.121-10.071,8.594-14.561s6.992-9.187,8.317-14.7c1.1-4.591.287-9.922-2.776-13.366a3.855,3.855,0,0,1-.522-4.526Z" transform="translate(-162.239 -203.136)" fill="#2f2e41"/>
  </g>
</svg>
